<?xml version="1.0" encoding="UTF-8"?>
<svg xmlns="http://www.w3.org/2000/svg" viewBox="0 0 95.82 76.19">
  <defs>
    <style>.cls-1{fill:#2a48df;}.cls-2{fill:#fff;}.cls-3{fill:#6d93f6;}</style>
  </defs>
  <g id="Layer_2" data-name="Layer 2">
    <g id="Layer_1-2" data-name="Layer 1">
      <path class="cls-1" d="M78.27,2.13h0a129.38,129.38,0,0,0-46.76,0c-1.32.24-19.44,6.65-19.44,6.65h0A18,18,0,0,0,0,25.77v12A18,18,0,0,0,10.82,54.2l44.07,22V59.77a130.25,130.25,0,0,0,23.38-2.12h0A21.42,21.42,0,0,0,95.82,36.58V23.19A21.42,21.42,0,0,0,78.27,2.13Z"></path>
      <path class="cls-2" d="M54.89,50.76a121.11,121.11,0,0,1-21.75-2A12.4,12.4,0,0,1,23,36.58V23.19A12.39,12.39,0,0,1,33.14,11a120.45,120.45,0,0,1,43.5,0A12.39,12.39,0,0,1,86.8,23.19V36.58a12.4,12.4,0,0,1-10.16,12.2A121.11,121.11,0,0,1,54.89,50.76Z"></path>
      <path class="cls-3" d="M41.31,38.86a3.75,3.75,0,0,1-3.75-3.75V24.67a3.76,3.76,0,1,1,7.51,0V35.11A3.75,3.75,0,0,1,41.31,38.86Z"></path>
      <path class="cls-3" d="M68.41,38.86a3.75,3.75,0,0,1-3.76-3.75V24.67a3.76,3.76,0,1,1,7.51,0V35.11A3.75,3.75,0,0,1,68.41,38.86Z"></path>
    </g>
  </g>
</svg>
